<?xml version="1.0" standalone="no"?>
<!DOCTYPE svg PUBLIC "-//W3C//DTD SVG 20010904//EN"
 "http://www.w3.org/TR/2001/REC-SVG-20010904/DTD/svg10.dtd">
<svg version="1.0" xmlns="http://www.w3.org/2000/svg"
 width="700.000000pt" height="700.000000pt" viewBox="0 0 700.000000 700.000000"
 preserveAspectRatio="xMidYMid meet">
<g transform="translate(0.000000,700.000000) scale(0.100000,-0.100000)"
fill="#000000" stroke="none">
<path d="M1388 6994 c-2 -2 -29 -6 -61 -9 -31 -4 -91 -15 -134 -26 -43 -11
-88 -22 -101 -24 -13 -3 -58 -19 -100 -36 -435 -173 -764 -515 -908 -944 -59
-178 -77 -288 -78 -475 -1 -227 15 -333 79 -524 178 -531 680 -949 1225 -1021
25 -3 63 -8 85 -11 83 -12 314 -5 375 11 8 2 35 7 60 10 47 6 181 44 260 73
104 38 380 194 380 215 0 4 -241 249 -536 544 l-536 536 145 145 144 144 538
-538 538 -538 24 30 c72 88 170 277 216 415 233 702 -60 1460 -708 1832 -223
128 -455 188 -742 192 -89 2 -163 1 -165 -1z"/>
<path d="M5160 6980 c-183 -30 -370 -96 -524 -186 -43 -25 -84 -50 -90 -55 -6
-5 -38 -29 -71 -53 -287 -211 -508 -563 -579 -921 -62 -310 -33 -604 89 -901
44 -105 129 -260 156 -284 3 -3 20 -27 39 -55 79 -117 307 -317 460 -404 315
-178 695 -245 1034 -180 28 5 64 12 81 15 63 11 245 78 338 124 167 83 301
184 434 324 93 99 97 104 147 181 22 33 47 72 57 86 84 126 179 397 204 584
19 137 9 392 -19 515 -4 14 -8 37 -11 51 -11 60 -68 217 -110 303 -159 327
-407 574 -731 727 -99 47 -289 110 -369 123 -22 4 -56 9 -75 12 -91 14 -358
11 -460 -6z"/>
<path d="M1430 3103 c-51 -6 -196 -26 -214 -29 -11 -2 -60 -15 -110 -30 -480
-141 -866 -514 -1025 -989 -16 -50 -32 -101 -35 -115 -3 -14 -13 -61 -22 -105
-21 -101 -25 -404 -5 -515 98 -564 482 -1022 1016 -1210 315 -111 667 -114
989 -8 124 40 302 131 411 208 105 75 269 235 343 334 83 113 186 307 218 411
64 205 86 335 86 510 0 81 -10 217 -17 245 -2 8 -7 31 -10 50 -26 150 -94 329
-190 496 -87 149 -263 342 -412 452 -172 126 -419 237 -593 266 -19 3 -44 7
-55 10 -83 16 -303 28 -375 19z"/>
<path d="M5298 3105 c-2 -1 -30 -5 -63 -8 -170 -16 -376 -80 -544 -168 -330
-173 -582 -454 -720 -801 -91 -231 -124 -487 -94 -738 6 -58 14 -114 17 -125
2 -11 9 -41 15 -67 35 -151 131 -366 223 -500 405 -586 1145 -823 1807 -578
364 134 669 407 844 756 105 210 156 416 162 654 2 107 -14 296 -30 349 -2 9
-7 30 -10 47 -9 58 -76 238 -122 328 -79 159 -162 273 -293 404 -284 285 -646
438 -1057 446 -73 2 -134 2 -135 1z"/>
</g>
</svg>
