<?xml version="1.0" encoding="UTF-8"?>
<svg width="211px" height="36px" viewBox="0 0 211 36" version="1.1" xmlns="http://www.w3.org/2000/svg" xmlns:xlink="http://www.w3.org/1999/xlink">
    <g id="Symbols" stroke="none" stroke-width="1" fill="none" fill-rule="evenodd">
        <g id="Nav-Menu-Desktop" transform="translate(-135.000000, -42.000000)">
            <g id="Quolum-Logo-Main" transform="translate(135.000000, 42.000000)">
                <path d="M73.1165707,19.2097317 C73.1165707,13.7109512 69.4941805,9.69607317 63.995839,9.69607317 C58.4966195,9.69607317 54.8307659,13.7109512 54.8307659,19.2097317 C54.8307659,24.7519756 58.5835463,28.7229512 63.995839,28.7229512 C69.4068146,28.7229512 73.1165707,24.7519756 73.1165707,19.2097317 L73.1165707,19.2097317 Z M80.1861805,28.6794878 L80.1861805,34.4408049 L64.0827659,34.4408049 C54.8307659,34.4408049 48.2410098,28.0692439 48.2410098,19.2097317 C48.2410098,10.3506585 55.1802293,3.54226829 64.0827659,3.54226829 C72.9853024,3.54226829 79.7067659,10.2189512 79.7067659,18.729878 C79.7067659,22.7877805 78.2658878,26.1919756 75.6910098,28.6794878 L80.1861805,28.6794878 Z" id="Fill-1" fill="#2C2E3A"></path>
                <path d="M84.242678,24.5775073 L84.242678,11.4418976 L90.6577024,11.4418976 L90.6577024,24.8391659 C90.6577024,27.5018488 92.359361,29.2474098 95.1089707,29.2474098 C97.8585805,29.2474098 99.5167756,27.5018488 99.5167756,24.8391659 L99.5167756,11.4418976 L105.975702,11.4418976 L105.975702,24.5775073 C105.975702,30.9929707 102.003849,35.0074098 95.1089707,35.0074098 C88.1697512,35.0074098 84.242678,30.9929707 84.242678,24.5775073" id="Fill-3" fill="#2C2E3A"></path>
                <path d="M127.619912,22.9195756 C127.619912,19.2528439 125.263668,16.6788439 121.684741,16.6788439 C118.106254,16.6788439 115.706107,19.2528439 115.706107,22.963039 C115.706107,26.6284537 118.106254,29.2472341 121.684741,29.2472341 C125.176302,29.2472341 127.619912,26.6284537 127.619912,22.9195756 M109.203717,22.963039 C109.203717,16.067722 114.353034,10.9175268 121.641278,10.9175268 C128.886059,10.9175268 134.079278,16.067722 134.079278,22.963039 C134.079278,29.8144537 128.886059,35.0072341 121.641278,35.0072341 C114.353034,35.0072341 109.203717,29.8144537 109.203717,22.963039" id="Fill-5" fill="#2C2E3A"></path>
                <polygon id="Fill-7" fill="#2C2E3A" points="137.612195 34.4411561 144.071122 34.4411561 144.071122 2.53857073 137.612195 2.53857073"></polygon>
                <path d="M148.434585,24.5775073 L148.434585,11.4418976 L154.84961,11.4418976 L154.84961,24.8391659 C154.84961,27.5018488 156.551268,29.2474098 159.300878,29.2474098 C162.050488,29.2474098 163.708683,27.5018488 163.708683,24.8391659 L163.708683,11.4418976 L170.16761,11.4418976 L170.16761,24.5775073 C170.16761,30.9929707 166.196195,35.0074098 159.300878,35.0074098 C152.361659,35.0074098 148.434585,30.9929707 148.434585,24.5775073" id="Fill-9" fill="#2C2E3A"></path>
                <path d="M210.534234,20.1263707 L210.534234,34.3972976 L204.075307,34.3972976 L204.075307,21.3477366 C204.075307,18.7737366 202.722234,16.6352488 200.016966,16.6352488 C197.136088,16.6352488 195.783015,18.8172 195.73999,20.7374927 L195.73999,34.3972976 L189.281063,34.3972976 L189.281063,21.3477366 C189.281063,18.7737366 187.884527,16.6352488 185.17838,16.6352488 C182.385307,16.6352488 180.988771,18.8172 180.945746,20.7374927 L180.945746,34.3972976 L174.48682,34.3972976 L174.48682,11.4420293 L180.596283,11.4420293 L180.596283,13.6235415 C182.036283,12.0092488 184.349502,10.8743707 187.229502,10.8743707 C190.721063,10.8743707 192.946478,12.0966146 194.212185,14.2346634 C195.565259,12.2704683 198.096234,10.8743707 201.762966,10.8743707 C207.522966,10.8743707 210.534234,15.020078 210.534234,20.1263707" id="Fill-10" fill="#2C2E3A"></path>
                <path d="M35.731361,7.92842927 C35.731361,12.3076976 32.1818488,15.8576488 27.8025805,15.8576488 C23.4241902,15.8576488 19.874239,12.3076976 19.874239,7.92842927 C19.874239,3.5496 23.4241902,-0.000351219512 27.8025805,-0.000351219512 C32.1818488,-0.000351219512 35.731361,3.5496 35.731361,7.92842927" id="Fill-11" fill="#E02F46"></path>
                <path d="M35.731361,27.9511902 C35.731361,32.3300195 32.1818488,35.8799707 27.8025805,35.8799707 C23.4241902,35.8799707 19.874239,32.3300195 19.874239,27.9511902 C19.874239,23.572361 23.4241902,20.0224098 27.8025805,20.0224098 C32.1818488,20.0224098 35.731361,23.572361 35.731361,27.9511902" id="Fill-12" fill="#E02F46"></path>
                <path d="M15.8573415,27.9511902 C15.8573415,32.3300195 12.3073902,35.8799707 7.92856098,35.8799707 C3.54973171,35.8799707 0.000219512195,32.3300195 0.000219512195,27.9511902 C0.000219512195,23.572361 3.54973171,20.0224098 7.92856098,20.0224098 C12.3073902,20.0224098 15.8573415,23.572361 15.8573415,27.9511902" id="Fill-13" fill="#E02F46"></path>
                <path d="M7.18401951,8.67358537 L8.67362927,7.18353659 L14.2242146,12.734561 C15.2440683,11.4003659 15.8573854,9.73778049 15.8573854,7.92856098 C15.8573854,3.54973171 12.3074341,0.000219512195 7.92816585,0.000219512195 C3.54977561,0.000219512195 0.000263414634,3.54973171 0.000263414634,7.92856098 C0.000263414634,12.3073902 3.54977561,15.8573415 7.92816585,15.8573415 C9.73782439,15.8573415 11.4004098,15.2444634 12.7346049,14.2246098 L7.18401951,8.67358537 Z" id="Fill-14" fill="#E02F46"></path>
            </g>
        </g>
    </g>
</svg>